<svg width="48" height="48" viewBox="0 0 48 48" fill="none" xmlns="http://www.w3.org/2000/svg">
  <circle cx="24" cy="12" r="6" stroke="#FFFFFF" stroke-width="2" stroke-linecap="round" stroke-linejoin="round"/>
  <path d="M24 18 L24 32" stroke="#FFFFFF" stroke-width="2" stroke-linecap="round" stroke-linejoin="round"/>
  <path d="M24 22 L16 16 L13 12" stroke="#FFFFFF" stroke-width="2" stroke-linecap="round" stroke-linejoin="round"/>
  <path d="M24 22 L32 26" stroke="#FFFFFF" stroke-width="2" stroke-linecap="round" stroke-linejoin="round"/>
  <circle cx="35" cy="28" r="4" stroke="#FFFFFF" stroke-width="2" stroke-linecap="round" stroke-linejoin="round"/>
  <line x1="35" y1="24" x2="35" y2="22" stroke="#FFFFFF" stroke-width="2" stroke-linecap="round"/>
  <line x1="35" y1="28" x2="35" y2="26" stroke="#FFFFFF" stroke-width="1.5" stroke-linecap="round"/>
  <line x1="35" y1="28" x2="37" y2="29" stroke="#FFFFFF" stroke-width="1.5" stroke-linecap="round"/>
  <path d="M20 18 Q18 20 18 23" stroke="#FFFFFF" stroke-width="1.5" stroke-linecap="round" stroke-linejoin="round"/>
  <ellipse cx="16" cy="24" rx="3" ry="2" stroke="#FFFFFF" stroke-width="2" stroke-linecap="round" stroke-linejoin="round"/>
  <line x1="13" y1="24" x2="11" y2="24" stroke="#FFFFFF" stroke-width="2" stroke-linecap="round"/>
  <path d="M24 32 L20 42" stroke="#FFFFFF" stroke-width="2" stroke-linecap="round" stroke-linejoin="round"/>
  <path d="M24 32 L28 42" stroke="#FFFFFF" stroke-width="2" stroke-linecap="round" stroke-linejoin="round"/>
  <path d="M10 8 L11 10 L13 10 L11.5 11.5 L12 14 L10 12.5 L8 14 L8.5 11.5 L7 10 L9 10 Z" fill="#FFFFFF"/>
</svg>
