<svg width="48" height="48" viewBox="0 0 48 48" fill="none" xmlns="http://www.w3.org/2000/svg">
  <!-- 头部 -->
  <circle cx="24" cy="12" r="6" stroke="#1A5D3A" stroke-width="2" stroke-linecap="round" stroke-linejoin="round"/>

  <!-- 身体 -->
  <path d="M24 18 L24 32" stroke="#1A5D3A" stroke-width="2" stroke-linecap="round" stroke-linejoin="round"/>

  <!-- 左臂 - 指导手势向上 -->
  <path d="M24 22 L16 16 L13 12" stroke="#1A5D3A" stroke-width="2" stroke-linecap="round" stroke-linejoin="round"/>

  <!-- 右臂 - 拿着秒表 -->
  <path d="M24 22 L32 26" stroke="#1A5D3A" stroke-width="2" stroke-linecap="round" stroke-linejoin="round"/>

  <!-- 秒表 -->
  <circle cx="35" cy="28" r="4" stroke="#1A5D3A" stroke-width="2" stroke-linecap="round" stroke-linejoin="round"/>
  <line x1="35" y1="24" x2="35" y2="22" stroke="#1A5D3A" stroke-width="2" stroke-linecap="round"/>
  <line x1="35" y1="28" x2="35" y2="26" stroke="#1A5D3A" stroke-width="1.5" stroke-linecap="round"/>
  <line x1="35" y1="28" x2="37" y2="29" stroke="#1A5D3A" stroke-width="1.5" stroke-linecap="round"/>

  <!-- 哨子绑带 -->
  <path d="M20 18 Q18 20 18 23" stroke="#1A5D3A" stroke-width="1.5" stroke-linecap="round" stroke-linejoin="round"/>

  <!-- 哨子 -->
  <ellipse cx="16" cy="24" rx="3" ry="2" stroke="#1A5D3A" stroke-width="2" stroke-linecap="round" stroke-linejoin="round"/>
  <line x1="13" y1="24" x2="11" y2="24" stroke="#1A5D3A" stroke-width="2" stroke-linecap="round"/>

  <!-- 左腿 -->
  <path d="M24 32 L20 42" stroke="#1A5D3A" stroke-width="2" stroke-linecap="round" stroke-linejoin="round"/>

  <!-- 右腿 -->
  <path d="M24 32 L28 42" stroke="#1A5D3A" stroke-width="2" stroke-linecap="round" stroke-linejoin="round"/>

  <!-- 星标 -->
  <path d="M10 8 L11 10 L13 10 L11.5 11.5 L12 14 L10 12.5 L8 14 L8.5 11.5 L7 10 L9 10 Z" fill="#1A5D3A"/>
</svg>
