<svg width="48" height="48" viewBox="0 0 48 48" fill="none" xmlns="http://www.w3.org/2000/svg">
  <!-- 餐盖顶部把手 -->
  <path d="M24 8 L24 12" stroke="#1A5D3A" stroke-width="2" stroke-linecap="round"/>
  <circle cx="24" cy="6" r="2" stroke="#1A5D3A" stroke-width="2" fill="none"/>

  <!-- 餐盖圆顶 -->
  <path d="M8 28 C8 18 14 12 24 12 C34 12 40 18 40 28" stroke="#1A5D3A" stroke-width="2" stroke-linecap="round" stroke-linejoin="round" fill="none"/>

  <!-- 餐盘底座 -->
  <path d="M6 28 L42 28" stroke="#1A5D3A" stroke-width="2" stroke-linecap="round"/>
  <path d="M10 32 L38 32" stroke="#1A5D3A" stroke-width="2" stroke-linecap="round"/>
  <path d="M6 28 C6 30 8 32 10 32" stroke="#1A5D3A" stroke-width="2" stroke-linecap="round" stroke-linejoin="round" fill="none"/>
  <path d="M42 28 C42 30 40 32 38 32" stroke="#1A5D3A" stroke-width="2" stroke-linecap="round" stroke-linejoin="round" fill="none"/>

  <!-- 蒸汽装饰 -->
  <path d="M18 38 C18 36 20 36 20 38 C20 40 22 40 22 38" stroke="#1A5D3A" stroke-width="1.5" stroke-linecap="round" stroke-linejoin="round" fill="none" opacity="0.6"/>
  <path d="M26 38 C26 36 28 36 28 38 C28 40 30 40 30 38" stroke="#1A5D3A" stroke-width="1.5" stroke-linecap="round" stroke-linejoin="round" fill="none" opacity="0.6"/>
</svg>
